# xmcd CD database file
#
# Track frame offsets:
#	150
#	26395
#	58467
#	76279
#	81449
#	96895
#	128461
#	155111
#	183963
#	219832
#	238141
#
# Disc length: 3527 seconds
#
# Revision: 0
# Processed by: cddbd v1.5.2PL0 Copyright (c) Steve Scherf et al.
# Submitted via: ACXtractor (MTCDDB.DLL V2003.07.15)
#
DISCID=8d0dc50b
DTITLE=Reverend KM Williams - Jukin' in the Holy Land (Live in Israel)
DYEAR=2014
DGENRE=Blues
TTITLE0=Something On Your Mind
TTITLE1=Feel Like Hollerin'
TTITLE2=Goin' On Down The Tracks
TTITLE3=One Suitcase Blues Intro
TTITLE4=One Suitcase Blues
TTITLE5=Meet You At The Station
TTITLE6=Louise McGee
TTITLE7=Poor Boy Long Way From Home
TTITLE8=Do You Know Where I'm Goin'
TTITLE9=Trouble No More
TTITLE10=Israel Boogie
EXTD=ID3G:   0 YEAR: 2014
EXTT0=
EXTT1=
EXTT2=
EXTT3=
EXTT4=
EXTT5=
EXTT6=
EXTT7=
EXTT8=
EXTT9=
EXTT10=
PLAYORDER=
